<svg width="129" height="162" viewBox="0 0 129 162" fill="none" xmlns="http://www.w3.org/2000/svg">
<rect width="15.745" height="15.745" rx="7.8725" fill="white" fill-opacity="0.2"/>
<rect y="24.2558" width="15.745" height="15.745" rx="7.8725" fill="white" fill-opacity="0.2"/>
<rect y="48.5117" width="15.745" height="15.745" rx="7.8725" fill="white" fill-opacity="0.2"/>
<rect y="72.7115" width="15.745" height="15.745" rx="7.8725" fill="white" fill-opacity="0.2"/>
<rect y="96.9113" width="15.745" height="15.745" rx="7.8725" fill="white" fill-opacity="0.2"/>
<rect y="121.111" width="15.745" height="15.745" rx="7.8725" fill="white" fill-opacity="0.2"/>
<rect y="145.311" width="15.745" height="15.745" rx="7.8725" fill="white" fill-opacity="0.2"/>
<rect x="24.2559" width="15.745" height="15.745" rx="7.8725" fill="white" fill-opacity="0.2"/>
<rect x="24.2559" y="24.2558" width="15.745" height="15.745" rx="7.8725" fill="white" fill-opacity="0.2"/>
<rect x="24.2559" y="48.5117" width="15.745" height="15.745" rx="7.8725" fill="white" fill-opacity="0.2"/>
<rect x="24.2559" y="72.7115" width="15.745" height="15.745" rx="7.8725" fill="white" fill-opacity="0.2"/>
<rect x="24.2559" y="96.9113" width="15.745" height="15.745" rx="7.8725" fill="white" fill-opacity="0.2"/>
<rect x="24.2559" y="121.111" width="15.745" height="15.745" rx="7.8725" fill="white" fill-opacity="0.2"/>
<rect x="24.2559" y="145.311" width="15.745" height="15.745" rx="7.8725" fill="white" fill-opacity="0.2"/>
<rect x="48.5116" width="15.745" height="15.745" rx="7.8725" fill="white" fill-opacity="0.2"/>
<rect x="72.7114" width="15.745" height="15.745" rx="7.8725" fill="white" fill-opacity="0.2"/>
<rect x="96.9114" width="15.745" height="15.745" rx="7.8725" fill="white" fill-opacity="0.2"/>
<rect x="121.111" width="15.745" height="15.745" rx="7.8725" fill="white" fill-opacity="0.2"/>
<rect x="48.5116" y="24.2558" width="15.745" height="15.745" rx="7.8725" fill="white" fill-opacity="0.2"/>
<rect x="72.7114" y="24.2558" width="15.745" height="15.745" rx="7.8725" fill="white" fill-opacity="0.2"/>
<rect x="96.9114" y="24.2558" width="15.745" height="15.745" rx="7.8725" fill="white" fill-opacity="0.2"/>
<rect x="121.111" y="24.2558" width="15.745" height="15.745" rx="7.8725" fill="white" fill-opacity="0.2"/>
<rect x="48.5116" y="48.5117" width="15.745" height="15.745" rx="7.8725" fill="white" fill-opacity="0.2"/>
<rect x="72.7114" y="48.5117" width="15.745" height="15.745" rx="7.8725" fill="white" fill-opacity="0.2"/>
<rect x="96.9114" y="48.5117" width="15.745" height="15.745" rx="7.8725" fill="white" fill-opacity="0.2"/>
<rect x="121.111" y="48.5117" width="15.745" height="15.745" rx="7.8725" fill="white" fill-opacity="0.2"/>
<rect x="48.5116" y="72.7115" width="15.745" height="15.745" rx="7.8725" fill="white" fill-opacity="0.2"/>
<rect x="72.7114" y="72.7115" width="15.745" height="15.745" rx="7.8725" fill="white" fill-opacity="0.2"/>
<rect x="96.9114" y="72.7115" width="15.745" height="15.745" rx="7.8725" fill="white" fill-opacity="0.2"/>
<rect x="121.111" y="72.7115" width="15.745" height="15.745" rx="7.8725" fill="white" fill-opacity="0.2"/>
<rect x="48.5116" y="96.9113" width="15.745" height="15.745" rx="7.8725" fill="white" fill-opacity="0.2"/>
<rect x="72.7114" y="96.9113" width="15.745" height="15.745" rx="7.8725" fill="white" fill-opacity="0.2"/>
<rect x="96.9114" y="96.9113" width="15.745" height="15.745" rx="7.8725" fill="white" fill-opacity="0.2"/>
<rect x="121.111" y="96.9113" width="15.745" height="15.745" rx="7.8725" fill="white" fill-opacity="0.2"/>
<rect x="48.5116" y="121.111" width="15.745" height="15.745" rx="7.8725" fill="white" fill-opacity="0.2"/>
<rect x="72.7114" y="121.111" width="15.745" height="15.745" rx="7.8725" fill="white" fill-opacity="0.2"/>
<rect x="96.9114" y="121.111" width="15.745" height="15.745" rx="7.8725" fill="white" fill-opacity="0.2"/>
<rect x="121.111" y="121.111" width="15.745" height="15.745" rx="7.8725" fill="white" fill-opacity="0.2"/>
<rect x="48.5116" y="145.311" width="15.745" height="15.745" rx="7.8725" fill="white" fill-opacity="0.2"/>
<rect x="72.7114" y="145.311" width="15.745" height="15.745" rx="7.8725" fill="white" fill-opacity="0.2"/>
<rect x="96.9114" y="145.311" width="15.745" height="15.745" rx="7.8725" fill="white" fill-opacity="0.2"/>
<rect x="121.111" y="145.311" width="15.745" height="15.745" rx="7.8725" fill="white" fill-opacity="0.2"/>
</svg>
