<svg width="155" height="155" viewBox="0 0 155 155" fill="none" xmlns="http://www.w3.org/2000/svg">
<g clip-path="url(#clip0_6_774)">
<path d="M42.9849 0C69.6328 0 96.2473 0 122.895 0C133.173 10.2463 143.45 20.4591 153.761 30.6719C155 31.8773 155 33.3171 155 34.8574C155 71.5565 155 108.256 155 144.988C155 151.451 151.418 155 144.89 155C112.116 155 79.3413 155 46.567 155C39.838 155 36.3564 151.484 36.3229 144.821C36.3229 125.768 36.2894 106.715 36.3898 87.6291C36.3898 85.2517 35.8207 84.7159 33.4438 84.7159C20.4881 84.649 10.8467 78.7222 4.15119 67.7058C2.10907 64.3573 1.473 60.4731 0 56.9237C0 53.3074 0 49.6576 0 46.0413C0.769978 45.7734 0.535637 45.0702 0.636069 44.501C3.91685 30.1026 16.4374 19.0527 30.3305 18.1821C32.3056 18.0482 34.9838 19.1532 36.0216 17.6464C36.9924 16.307 36.4568 13.7622 36.2894 11.7866C35.7538 6.22813 37.7624 2.24347 42.9849 0ZM95.4104 148.939C111.546 148.939 127.683 148.939 143.819 148.939C147.936 148.939 148.907 148.002 148.907 144.084C148.907 108.992 148.907 73.8669 148.941 38.7751C148.941 36.7995 148.438 36.2638 146.463 36.2973C138.596 36.4312 130.729 36.3642 122.862 36.3307C119.447 36.3307 118.644 35.4936 118.644 32.0447C118.644 24.2763 118.51 16.5079 118.711 8.73947C118.778 6.36207 118.008 5.92677 115.865 6.02722C112.049 6.19464 108.199 6.0607 104.382 6.0607C85.4341 6.0607 66.4525 6.0607 47.5043 6.0607C43.3197 6.0607 42.4158 6.96479 42.4158 11.2173C42.4158 13.0255 42.5832 14.8671 42.3823 16.6753C42.1479 18.7514 42.9514 19.5885 44.8596 20.3251C58.1166 25.3143 66.5864 37.5027 66.6199 51.3988C66.6533 65.4288 58.1836 77.6507 44.7257 82.7068C42.8845 83.41 42.3488 84.2137 42.3488 86.1223C42.4158 105.275 42.3823 124.462 42.3823 143.615C42.3823 148.169 43.1857 148.973 47.906 148.973C63.7408 148.939 79.5756 148.939 95.4104 148.939ZM30.2635 24.7786C14.797 25.4817 2.946 42.7263 6.89633 57.8613C10.2106 70.4515 22.5302 80.1285 36.892 78.2534C47.9395 76.8136 58.0162 67.6388 59.8909 56.6224C60.1922 54.9482 59.8575 54.245 58.0162 54.4124C56.3089 54.5798 54.6015 54.5463 52.8942 54.4124C45.6296 53.9101 38.2981 55.5844 31.1004 53.5083C29.2592 46.3761 30.7322 39.1434 30.297 31.9777C30.1631 29.6003 30.2635 27.1895 30.2635 24.7786ZM48.3412 48.4187C51.6555 48.4187 54.9698 48.3517 58.284 48.4521C59.757 48.4856 60.1253 48.1173 59.9579 46.6105C58.8531 36.6321 48.3078 26.051 38.2311 24.7786C36.959 24.6111 36.2559 24.6111 36.2559 26.3189C36.3564 33.0493 36.3564 39.7797 36.2559 46.5435C36.2225 48.3182 36.959 48.4856 38.365 48.4521C41.7127 48.3852 45.027 48.4187 48.3412 48.4187ZM143.484 30.27C137.257 24.0419 130.963 17.7133 124.737 11.4852C124.737 16.9767 124.737 22.803 124.737 28.6293C124.737 29.6673 124.803 30.3035 126.143 30.3035C132.035 30.2366 137.927 30.27 143.484 30.27Z" fill="#3151AD"/>
<path d="M132.637 98.7794C130.695 98.0763 129.591 99.0473 128.419 100.32C122.627 106.648 116.802 112.91 110.91 119.138C109.806 120.277 109.504 121.181 110.174 122.788C111.747 126.505 110.475 130.657 107.395 133.068C104.416 135.412 100.198 135.646 96.9503 133.67C93.6361 131.661 91.7613 127.543 92.9331 123.759C93.4687 121.984 93.0335 120.946 91.9957 119.741C90.9244 118.535 89.9536 117.229 88.9493 115.99C84.2624 110.131 84.2624 110.131 77.2991 110.198C76.2948 110.198 75.9266 110.934 75.4244 111.504C72.7462 114.383 70.1015 117.296 67.3899 120.143C66.3521 121.248 65.9169 122.152 66.3855 123.826C67.5238 127.844 65.5821 131.829 62 133.838C58.4179 135.847 54.0324 135.278 51.1534 132.465C48.2743 129.652 47.6048 125.232 49.513 121.649C51.4212 118.067 55.3715 116.024 59.4223 117.029C61.1296 117.464 61.9665 116.995 62.9709 115.89C65.5821 112.977 68.2603 110.064 70.9384 107.218C71.8423 106.28 72.1771 105.476 71.7419 104.037C70.6706 100.186 72.2106 96.3685 75.324 94.2255C78.4708 92.049 82.6555 92.0825 85.8024 94.259C88.9158 96.4355 90.4222 100.286 89.3175 104.103C88.8488 105.644 89.2171 106.514 90.121 107.586C91.6274 109.327 93.4017 111.001 94.4061 113.044C96.4482 117.095 99.7959 117.263 103.545 116.995C104.65 116.928 105.152 116.258 105.721 115.622C111.848 109.059 117.941 102.496 124.1 96.0002C125.172 94.8617 124.87 94.0916 124.435 92.8527C122.56 87.7295 125.004 82.7403 130.059 80.9991C134.646 79.3919 140.002 82.0037 141.576 86.5576C143.249 91.4798 140.571 96.7369 135.516 98.3107C134.545 98.612 133.541 98.6455 132.637 98.7794ZM83.5259 101.726C83.2581 100.052 82.3207 98.8464 80.6134 98.8129C78.9061 98.746 77.7009 99.9179 77.6339 101.592C77.5335 103.434 78.7721 104.673 80.6134 104.673C82.2873 104.606 83.2246 103.4 83.5259 101.726ZM60.4935 126.036C60.2927 124.362 59.3553 123.156 57.6814 123.022C55.9741 122.888 54.7354 124.027 54.568 125.668C54.4007 127.543 55.6058 128.782 57.4136 128.849C59.1879 128.916 60.1588 127.71 60.4935 126.036ZM104.717 125.935C104.449 124.261 103.512 123.022 101.838 122.989C99.9968 122.955 98.7581 124.194 98.8251 126.036C98.892 127.71 100.064 128.882 101.771 128.849C103.478 128.815 104.416 127.61 104.717 125.935ZM132.938 92.6183C134.579 92.2165 135.717 91.4463 135.717 89.5712C135.684 87.696 134.512 86.6915 132.938 86.6915C131.164 86.6915 129.992 87.7965 130.093 89.8056C130.16 91.6472 131.399 92.3169 132.938 92.6183Z" fill="#3151AD"/>
<path d="M110.776 48.4187C118.142 48.4187 125.473 48.4521 132.838 48.4187C135.014 48.4187 136.755 48.9544 136.788 51.4323C136.788 53.9101 135.048 54.4794 132.872 54.4794C118.175 54.4459 103.478 54.4459 88.7484 54.4794C86.5724 54.4794 84.8316 53.9436 84.7981 51.4657C84.7981 48.9879 86.5389 48.3852 88.7149 48.4187C96.08 48.4521 103.411 48.4187 110.776 48.4187Z" fill="#3151AD"/>
<path d="M110.475 66.6008C103.211 66.6008 95.9795 66.5673 88.7149 66.6008C86.5389 66.6008 84.7981 66.0315 84.7981 63.5537C84.7981 61.0758 86.5389 60.5066 88.7149 60.5066C103.411 60.5401 118.108 60.5401 132.838 60.5066C135.014 60.5066 136.755 61.0758 136.755 63.5537C136.755 66.0315 135.014 66.6008 132.838 66.6008C125.373 66.5673 117.941 66.6008 110.475 66.6008Z" fill="#3151AD"/>
<path d="M93.7365 24.2093C88.6144 24.2093 83.4589 24.1758 78.3369 24.2093C76.1274 24.2428 74.4535 23.5396 74.5205 21.0618C74.554 18.7848 76.1609 18.1151 78.2365 18.1151C88.4136 18.1486 98.5572 18.1486 108.734 18.1151C110.944 18.1151 112.618 18.7848 112.551 21.2627C112.517 23.5396 110.91 24.2093 108.835 24.2093C103.813 24.1758 98.7581 24.2093 93.7365 24.2093Z" fill="#3151AD"/>
<path d="M93.4017 36.3308C88.3801 36.3308 83.3251 36.2973 78.3035 36.3308C76.094 36.3642 74.4536 35.6276 74.5205 33.1497C74.5875 30.8728 76.1944 30.2366 78.27 30.2366C88.4471 30.2701 98.5907 30.2701 108.768 30.2366C110.977 30.2366 112.618 30.9397 112.551 33.4176C112.484 35.6946 110.877 36.3642 108.801 36.3308C103.679 36.2973 98.5572 36.3308 93.4017 36.3308Z" fill="#3151AD"/>
<path d="M75.458 48.3852C77.5336 48.6196 78.7053 49.5572 78.6718 51.4658C78.6718 53.3744 77.567 54.4459 75.6588 54.4459C73.7506 54.4459 72.6794 53.3409 72.6794 51.4323C72.6459 49.4902 73.918 48.6866 75.458 48.3852Z" fill="#3151AD"/>
<path d="M75.5248 60.5066C77.3995 60.6405 78.6047 61.5446 78.6717 63.4532C78.7386 65.3284 77.7008 66.5003 75.7926 66.5673C73.9179 66.6343 72.7797 65.5962 72.6792 63.6876C72.5788 61.779 73.717 60.808 75.5248 60.5066Z" fill="#3151AD"/>
<path d="M32.3725 72.628C21.6933 72.4941 12.0853 62.7501 12.1187 52.1355C12.1187 50.1599 12.7213 48.6866 14.7969 48.4522C17.0399 48.2513 17.9103 49.5907 18.2451 51.7337C19.5842 61.0089 23.7354 65.1945 32.9416 66.5004C35.0507 66.8017 36.3898 67.6388 36.2894 69.8823C36.2224 71.7909 34.8498 72.6615 32.3725 72.628Z" fill="#3151AD"/>
</g>
<defs>
<clipPath id="clip0_6_774">
<rect width="155" height="155" fill="white"/>
</clipPath>
</defs>
</svg>
