<svg width="38" height="37" viewBox="0 0 38 37" fill="none" xmlns="http://www.w3.org/2000/svg">
<path d="M17.9858 2.13076C18.2861 1.21142 19.5867 1.21142 19.887 2.13076L22.938 11.4713C23.341 12.7051 24.4918 13.5398 25.7897 13.5398H35.6405C36.6105 13.5398 37.0124 14.7821 36.2262 15.3503L28.275 21.0967C27.218 21.8606 26.7756 23.22 27.1805 24.4597L30.2219 33.7707C30.5226 34.6911 29.4703 35.4588 28.6856 34.8917L20.6936 29.1158C19.6448 28.3578 18.228 28.3578 17.1791 29.1158L9.18715 34.8917C8.40241 35.4588 7.35019 34.6911 7.65083 33.7707L10.6922 24.4597C11.0972 23.22 10.6548 21.8606 9.59774 21.0967L1.64654 15.3503C0.860362 14.7821 1.26229 13.5398 2.23229 13.5398H12.0831C13.381 13.5398 14.5318 12.7051 14.9348 11.4713L17.9858 2.13076Z" stroke="#FFC94B" stroke-width="2"/>
</svg>
