<svg width="38" height="37" viewBox="0 0 38 37" fill="none" xmlns="http://www.w3.org/2000/svg">
<path d="M20.9648 1.82026C20.3642 -0.0184135 17.7631 -0.0184126 17.1625 1.82026L14.1114 11.1608C13.8428 11.9834 13.0756 12.5398 12.2103 12.5398H2.35954C0.419529 12.5398 -0.384327 15.0245 1.18804 16.1608L9.13923 21.9072C9.84392 22.4165 10.1388 23.3227 9.86888 24.1492L6.8275 33.4602C6.22623 35.301 8.33065 36.8365 9.90015 35.7022L17.8921 29.9263C18.5914 29.421 19.5359 29.421 20.2351 29.9263L28.2271 35.7022C29.7966 36.8365 31.901 35.301 31.2997 33.4602L28.2584 24.1492C27.9884 23.3227 28.2833 22.4165 28.988 21.9072L36.9392 16.1608C38.5116 15.0245 37.7077 12.5398 35.7677 12.5398H25.9169C25.0516 12.5398 24.2845 11.9834 24.0158 11.1608L20.9648 1.82026Z" fill="#FFC94B"/>
</svg>
